<?xml version="1.0" encoding="utf-8"?>
<!-- Generator: Adobe Illustrator 15.0.0, SVG Export Plug-In . SVG Version: 6.00 Build 0)  -->
<!DOCTYPE svg PUBLIC "-//W3C//DTD SVG 1.1//EN" "http://www.w3.org/Graphics/SVG/1.1/DTD/svg11.dtd">
<svg version="1.1"
	 id="svg2" inkscape:version="0.91 r13725" sodipodi:docname="honeycomb.svg" xmlns:dc="http://purl.org/dc/elements/1.1/" xmlns:cc="http://creativecommons.org/ns#" xmlns:rdf="http://www.w3.org/1999/02/22-rdf-syntax-ns#" xmlns:svg="http://www.w3.org/2000/svg" xmlns:sodipodi="http://sodipodi.sourceforge.net/DTD/sodipodi-0.dtd" xmlns:inkscape="http://www.inkscape.org/namespaces/inkscape"
	 xmlns="http://www.w3.org/2000/svg" xmlns:xlink="http://www.w3.org/1999/xlink" x="0px" y="0px" width="519px" height="442px"
	 viewBox="0 0 519 442" enable-background="new 0 0 519 442" xml:space="preserve">
<sodipodi:namedview  units="px" id="base" inkscape:window-y="38" inkscape:window-x="304" inkscape:window-height="819" inkscape:window-width="1778" fit-margin-bottom="0" fit-margin-right="0" inkscape:snap-global="false" inkscape:snap-nodes="true" inkscape:snap-others="true" inkscape:guide-bbox="true" inkscape:current-layer="g8493" inkscape:document-units="px" inkscape:pageshadow="2" inkscape:pageopacity="0.0" inkscape:cy="189.13154" objecttolerance="1" inkscape:cx="130.04917" inkscape:zoom="0.86180109" fit-margin-left="0" showguides="true" borderopacity="1.0" borderlayer="false" fit-margin-top="0" bordercolor="#666666" showgrid="true" pagecolor="#ffffff" guidetolerance="1" inkscape:window-maximized="0">
	<inkscape:grid  type="xygrid" originy="-143.50858" originx="-0.00035144211" visible="false" id="grid8068" empspacing="60">
		</inkscape:grid>
	<sodipodi:guide  id="guide8074" orientation="1,0" position="-900.00041,456.49144"></sodipodi:guide>
</sodipodi:namedview>
<g id="layer1" transform="translate(-3.5188407e-4,-466.85331)" inkscape:label="ă¬ă‚¤ă¤ăĽ 1" inkscape:groupmode="layer">
	<g id="g9789" transform="matrix(1.000009,0,0,1,-1.3623185e-5,-1.375479e-5)">
		<g id="g8249" transform="translate(0,30.000004)">
			<g id="g8094" transform="matrix(0,0.24844322,-0.24825926,0,213.09959,378.21956)">
				<g id="g11059" transform="matrix(1,0,0,0.99999888,2.6588724e-5,3.0969786e-4)">
					<g id="g8281" transform="matrix(0,-1.0007331,0.99926742,0,1573.1904,1198.0771)">
						<g id="g8493" transform="matrix(0,1.0007331,-0.99926743,0,1197.1999,-1574.3443)">
							<g id="g9376">
								<g id="g10659">
									<g id="g9165">
										<g id="g8795" transform="matrix(1.000007,0,0,0.99872895,-0.00270874,1.0903787)">
											<g id="g10620" transform="matrix(0.98714604,0,0,0.98714084,2.2837926,11.038384)">
												<path id="path8092" inkscape:connector-curvature="0" fill="none" stroke="#FFFFFF" stroke-width="4.0265" d="
													M239.998,648.362h120.002L420,752.364l-59.999,103.999H239.998l-59.999-103.999L239.998,648.362z"/>
											</g>
											<g id="g8705" transform="matrix(0.98714604,0,0,0.98714084,2.2837926,-198.26135)">
												<path id="path8707" inkscape:connector-curvature="0" fill="none" stroke="#FFFFFF" stroke-width="4.0265" d="
													M239.998,648.362h120.002L420,752.363l-59.999,103.999h-60.001h-60.001l-59.999-103.999L239.998,648.362z"/>
											</g>
											<g id="g8709" transform="matrix(0.98714604,0,0,0.98714084,2.2837926,-407.56108)">
												<path id="path8711" inkscape:connector-curvature="0" fill="none" stroke="#FFFFFF" stroke-width="4.0265" d="
													M239.998,648.361h120.002L420,752.363l-59.999,103.999H239.998l-59.999-103.999L239.998,648.361z"/>
											</g>
											<g id="g8713" transform="matrix(0.98714604,0,0,0.98714084,2.2837926,-616.86081)">
												<path id="path8715" inkscape:connector-curvature="0" fill="none" stroke="#FFFFFF" stroke-width="4.0265" d="
													M239.998,648.363h120.002L420,752.362l-59.999,103.999H239.998l-59.999-103.999L239.998,648.363z"/>
											</g>
											<g id="g8717" transform="matrix(0.98714604,0,0,0.98714084,2.2837926,-826.16054)">
												<path id="path8719" inkscape:connector-curvature="0" fill="none" stroke="#FFFFFF" stroke-width="4.0265" d="
													M239.998,648.362h120.002L420,752.362l-59.999,103.999H239.998l-59.999-103.999L239.998,648.362z"/>
											</g>
											<g id="g8721" transform="matrix(0.98714604,0,0,0.98714084,2.2837926,-1035.4603)">
												<path id="path8723" inkscape:connector-curvature="0" fill="none" stroke="#FFFFFF" stroke-width="4.0265" d="
													M239.998,648.362h120.002L420,752.363l-59.999,103.997H239.998l-59.999-103.997L239.998,648.362z"/>
											</g>
											<g id="g8725" transform="matrix(0.98714604,0,0,0.98714084,2.2837926,-1244.76)">
												<path id="path8727" inkscape:connector-curvature="0" fill="none" stroke="#FFFFFF" stroke-width="4.0265" d="
													M239.998,648.363h120.002L420,752.361l-59.999,104.001H239.998l-59.999-104.001L239.998,648.363z"/>
											</g>
											<g id="g8729" transform="matrix(0.98714604,0,0,0.98714084,2.2837926,-1454.0597)">
												<path id="path8731" inkscape:connector-curvature="0" fill="none" stroke="#FFFFFF" stroke-width="4.0265" d="
													M239.998,648.361h120.002L420,752.358L360.001,856.36H239.998l-59.999-104.001L239.998,648.361z"/>
											</g>
											<g id="g8733" transform="matrix(0.98714604,0,0,0.98714084,2.2837926,-1663.3594)">
												<path id="path8735" inkscape:connector-curvature="0" fill="none" stroke="#FFFFFF" stroke-width="4.0265" d="
													M239.998,648.363h120.002L420,752.36l-59.999,104.001H239.998L179.999,752.36L239.998,648.363z"/>
											</g>
											<g id="g8737" transform="matrix(0.98714604,0,0,0.98714084,2.2837926,-1872.6591)">
												<path id="path8739" inkscape:connector-curvature="0" fill="none" stroke="#FFFFFF" stroke-width="4.0265" d="
													M239.998,648.36h120.002L420,752.362l-59.999,103.997H239.998l-59.999-103.997L239.998,648.36z"/>
											</g>
											<g id="g8745" transform="matrix(0.98714604,0,0,0.98714084,180.37514,-93.609469)">
												<path id="path8747" inkscape:connector-curvature="0" fill="none" stroke="#FFFFFF" stroke-width="4.0265" d="
													M239.999,648.364h120l60.001,103.999L360,856.363h-120L180,752.364L239.999,648.364z"/>
											</g>
											<path id="path8755" inkscape:connector-curvature="0" fill="none" stroke="#FFFFFF" stroke-width="4.0265" d="
												M359.353,857.34l58.09-104.848l118.255,1.04l58.09,103.808"/>
											<g id="g8757" transform="matrix(0.98714604,0,0,0.98714084,180.37514,-302.9092)">
												<path id="path8759" inkscape:connector-curvature="0" fill="none" stroke="#FFFFFF" stroke-width="4.0265" d="
													M239.999,648.364h120l60.001,103.999L360,856.362h-120L180,752.363L239.999,648.364z"/>
											</g>
											<g id="g8761" transform="matrix(0.98714604,0,0,0.98714084,180.37514,-512.20893)">
												<path id="path8763" inkscape:connector-curvature="0" fill="none" stroke="#FFFFFF" stroke-width="4.0265" d="
													M239.999,648.363h120l60.001,103.999L360,856.364h-120L180,752.362L239.999,648.363z"/>
											</g>
											<g id="g8765" transform="matrix(0.98714604,0,0,0.98714084,180.37514,-721.50866)">
												<path id="path8767" inkscape:connector-curvature="0" fill="none" stroke="#FFFFFF" stroke-width="4.0265" d="
													M239.999,648.362h120l60.001,103.999L360,856.363h-120L180,752.361L239.999,648.362z"/>
											</g>
											<g id="g8769" transform="matrix(0.98714604,0,0,0.98714084,180.37514,-930.80839)">
												<path id="path8771" inkscape:connector-curvature="0" fill="none" stroke="#FFFFFF" stroke-width="4.0265" d="
													M239.999,648.359h120l60.001,104.001L360,856.362h-120L180,752.361L239.999,648.359z"/>
											</g>
											<g id="g8773" transform="matrix(0.98714604,0,0,0.98714084,180.37514,-1140.1081)">
												<path id="path8775" inkscape:connector-curvature="0" fill="none" stroke="#FFFFFF" stroke-width="4.0265" d="
													M239.999,648.361h120l60.001,104.001L360,856.364h-120L180,752.363L239.999,648.361z"/>
											</g>
											<g id="g8777" transform="matrix(0.98714604,0,0,0.98714084,180.37514,-1349.4078)">
												<path id="path8779" inkscape:connector-curvature="0" fill="none" stroke="#FFFFFF" stroke-width="4.0265" d="
													M239.999,648.362h120l60.001,104.001L360,856.361h-120L180,752.364L239.999,648.362z"/>
											</g>
											<g id="g8781" transform="matrix(0.98714604,0,0,0.98714084,180.37514,-1558.7075)">
												<path id="path8783" inkscape:connector-curvature="0" fill="none" stroke="#FFFFFF" stroke-width="4.0265" d="
													M239.999,648.359h120l60.001,104.001L360,856.358h-120L180,752.361L239.999,648.359z"/>
											</g>
											<g id="g8785" transform="matrix(0.98714604,0,0,0.98714084,180.37514,-1768.0072)">
												<path id="path8787" inkscape:connector-curvature="0" fill="none" stroke="#FFFFFF" stroke-width="4.0265" d="
													M239.999,648.361h120l60.001,104.001L360,856.359h-120L180,752.362L239.999,648.361z"/>
											</g>
											<path id="path8793" inkscape:connector-curvature="0" fill="none" stroke="#FFFFFF" stroke-width="4.0265" d="
												M357.297-1233.98l60.965,103.251l116.461,0.784l59.403-106.378"/>
										</g>
										<g id="g8837" transform="matrix(1.000007,0,0,0.99872895,355.19319,1.0903787)">
											<g id="g8839" transform="matrix(0.98714604,0,0,0.98714084,2.2837926,11.038384)">
												<path id="path8841" inkscape:connector-curvature="0" fill="none" stroke="#FFFFFF" stroke-width="4.0265" d="
													M239.999,648.362h120L420,752.364l-60.001,103.999h-120L180,752.364L239.999,648.362z"/>
											</g>
											<g id="g8843" transform="matrix(0.98714604,0,0,0.98714084,2.2837926,-198.26135)">
												<path id="path8845" inkscape:connector-curvature="0" fill="none" stroke="#FFFFFF" stroke-width="4.0265" d="
													M239.999,648.362h120L420,752.363l-60.001,103.999h-120L180,752.363L239.999,648.362z"/>
											</g>
											<g id="g8847" transform="matrix(0.98714604,0,0,0.98714084,2.2837926,-407.56108)">
												<path id="path8849" inkscape:connector-curvature="0" fill="none" stroke="#FFFFFF" stroke-width="4.0265" d="
													M239.999,648.361h120L420,752.362l-60.001,103.999h-120L180,752.362L239.999,648.361z"/>
											</g>
											<g id="g8851" transform="matrix(0.98714604,0,0,0.98714084,2.2837926,-616.86081)">
												<path id="path8853" inkscape:connector-curvature="0" fill="none" stroke="#FFFFFF" stroke-width="4.0265" d="
													M239.999,648.362h120L420,752.362l-60.001,103.999h-120L180,752.362L239.999,648.362z"/>
											</g>
											<g id="g8855" transform="matrix(0.98714604,0,0,0.98714084,2.2837926,-826.16054)">
												<path id="path8857" inkscape:connector-curvature="0" fill="none" stroke="#FFFFFF" stroke-width="4.0265" d="
													M239.999,648.362h120L420,752.361l-60.001,103.999h-120L180,752.361L239.999,648.362z"/>
											</g>
											<g id="g8859" transform="matrix(0.98714604,0,0,0.98714084,2.2837926,-1035.4603)">
												<path id="path8861" inkscape:connector-curvature="0" fill="none" stroke="#FFFFFF" stroke-width="4.0265" d="
													M239.999,648.361h120L420,752.363L359.999,856.36h-120L180,752.363L239.999,648.361z"/>
											</g>
											<g id="g8863" transform="matrix(0.98714604,0,0,0.98714084,2.2837926,-1244.76)">
												<path id="path8865" inkscape:connector-curvature="0" fill="none" stroke="#FFFFFF" stroke-width="4.0265" d="
													M239.999,648.363h120L420,752.36l-60.001,104.001h-120L180,752.36L239.999,648.363z"/>
											</g>
											<g id="g8867" transform="matrix(0.98714604,0,0,0.98714084,2.2837926,-1454.0597)">
												<path id="path8869" inkscape:connector-curvature="0" fill="none" stroke="#FFFFFF" stroke-width="4.0265" d="
													M239.999,648.361h120L420,752.358l-60.001,104.001h-120L180,752.358L239.999,648.361z"/>
											</g>
											<g id="g8871" transform="matrix(0.98714604,0,0,0.98714084,2.2837926,-1663.3594)">
												<path id="path8873" inkscape:connector-curvature="0" fill="none" stroke="#FFFFFF" stroke-width="4.0265" d="
													M239.999,648.362h120L420,752.36l-60.001,104.001h-120L180,752.36L239.999,648.362z"/>
											</g>
											<g id="g8875" transform="matrix(0.98714604,0,0,0.98714084,2.2837926,-1872.6591)">
												<path id="path8877" inkscape:connector-curvature="0" fill="none" stroke="#FFFFFF" stroke-width="4.0265" d="
													M239.999,648.36h120L420,752.361l-60.001,103.997h-120L180,752.361L239.999,648.36z"/>
											</g>
											<g id="g8879" transform="matrix(0.98714604,0,0,0.98714084,180.37514,-93.609469)">
												<path id="path8881" inkscape:connector-curvature="0" fill="none" stroke="#FFFFFF" stroke-width="4.0265" d="
													M240,648.364h120l60.001,103.999l-60.001,103.999H240l-59.999-103.999L240,648.364z"/>
											</g>
											<path id="path8883" inkscape:connector-curvature="0" fill="none" stroke="#FFFFFF" stroke-width="4.0265" d="
												M359.354,857.34l58.09-104.848l118.255,1.04l58.09,103.808"/>
											<g id="g8885" transform="matrix(0.98714604,0,0,0.98714084,180.37514,-302.9092)">
												<path id="path8887" inkscape:connector-curvature="0" fill="none" stroke="#FFFFFF" stroke-width="4.0265" d="
													M240,648.363h120l60.001,103.999l-60.001,103.999H240l-59.999-103.999L240,648.363z"/>
											</g>
											<g id="g8889" transform="matrix(0.98714604,0,0,0.98714084,180.37514,-512.20893)">
												<path id="path8891" inkscape:connector-curvature="0" fill="none" stroke="#FFFFFF" stroke-width="4.0265" d="
													M240,648.362h120l60.001,103.999l-60.001,104.001H240l-59.999-104.001L240,648.362z"/>
											</g>
											<g id="g8893" transform="matrix(0.98714604,0,0,0.98714084,180.37514,-721.50866)">
												<path id="path8895" inkscape:connector-curvature="0" fill="none" stroke="#FFFFFF" stroke-width="4.0265" d="
													M240,648.361h120l60.001,103.999l-60.001,104.001H240l-59.999-104.001L240,648.361z"/>
											</g>
											<g id="g8897" transform="matrix(0.98714604,0,0,0.98714084,180.37514,-930.80839)">
												<path id="path8899" inkscape:connector-curvature="0" fill="none" stroke="#FFFFFF" stroke-width="4.0265" d="
													M240,648.359h120l60.001,104.001l-60.001,104.001H240L180.001,752.36L240,648.359z"/>
											</g>
											<g id="g8901" transform="matrix(0.98714604,0,0,0.98714084,180.37514,-1140.1081)">
												<path id="path8903" inkscape:connector-curvature="0" fill="none" stroke="#FFFFFF" stroke-width="4.0265" d="
													M240,648.361h120l60.001,104.001l-60.001,104.001H240l-59.999-104.001L240,648.361z"/>
											</g>
											<g id="g8905" transform="matrix(0.98714604,0,0,0.98714084,180.37514,-1349.4078)">
												<path id="path8907" inkscape:connector-curvature="0" fill="none" stroke="#FFFFFF" stroke-width="4.0265" d="
													M240,648.362h120l60.001,104.001l-60.001,103.997H240l-59.999-103.997L240,648.362z"/>
											</g>
											<g id="g8909" transform="matrix(0.98714604,0,0,0.98714084,180.37514,-1558.7075)">
												<path id="path8911" inkscape:connector-curvature="0" fill="none" stroke="#FFFFFF" stroke-width="4.0265" d="
													M240,648.359h120l60.001,104.001l-60.001,103.997H240L180.001,752.36L240,648.359z"/>
											</g>
											<g id="g8913" transform="matrix(0.98714604,0,0,0.98714084,180.37514,-1768.0072)">
												<path id="path8915" inkscape:connector-curvature="0" fill="none" stroke="#FFFFFF" stroke-width="4.0265" d="
													M240,648.36h120l60.001,104.001l-60.001,103.997H240l-59.999-103.997L240,648.36z"/>
											</g>
											<path id="path8917" inkscape:connector-curvature="0" fill="none" stroke="#FFFFFF" stroke-width="4.0265" d="
												M357.296-1233.981l60.967,103.251l116.461,0.784l59.403-106.378"/>
										</g>
										<g id="g8919" transform="matrix(1.000007,0,0,0.99872895,709.39891,1.0903787)">
											<g id="g8921" transform="matrix(0.98714604,0,0,0.98714084,2.2837926,11.038384)">
												<path id="path8923" inkscape:connector-curvature="0" fill="none" stroke="#FFFFFF" stroke-width="4.0265" d="
													M240,648.362h120l60.001,104.001L360,856.363H240l-59.999-103.999L240,648.362z"/>
											</g>
											<g id="g8925" transform="matrix(0.98714604,0,0,0.98714084,2.2837926,-198.26135)">
												<path id="path8927" inkscape:connector-curvature="0" fill="none" stroke="#FFFFFF" stroke-width="4.0265" d="
													M240,648.361h120l60.001,104.001L360,856.362H240l-59.999-103.999L240,648.361z"/>
											</g>
											<g id="g8929" transform="matrix(0.98714604,0,0,0.98714084,2.2837926,-407.56108)">
												<path id="path8931" inkscape:connector-curvature="0" fill="none" stroke="#FFFFFF" stroke-width="4.0265" d="
													M240,648.36h120l60.001,104.001L360,856.361H240l-59.999-103.999L240,648.36z"/>
											</g>
											<g id="g8933" transform="matrix(0.98714604,0,0,0.98714084,2.2837926,-616.86081)">
												<path id="path8935" inkscape:connector-curvature="0" fill="none" stroke="#FFFFFF" stroke-width="4.0265" d="
													M240,648.362h120l60.001,103.999L360,856.361H240l-59.999-103.999L240,648.362z"/>
											</g>
											<g id="g8937" transform="matrix(0.98714604,0,0,0.98714084,2.2837926,-826.16054)">
												<path id="path8939" inkscape:connector-curvature="0" fill="none" stroke="#FFFFFF" stroke-width="4.0265" d="
													M240,648.361h120l60.001,103.999L360,856.36H240l-59.999-103.999L240,648.361z"/>
											</g>
											<g id="g8941" transform="matrix(0.98714604,0,0,0.98714084,2.2837926,-1035.4603)">
												<path id="path8943" inkscape:connector-curvature="0" fill="none" stroke="#FFFFFF" stroke-width="4.0265" d="
													M240,648.36h120l60.001,104.001L360,856.359H240l-59.999-103.997L240,648.36z"/>
											</g>
											<g id="g8945" transform="matrix(0.98714604,0,0,0.98714084,2.2837926,-1244.76)">
												<path id="path8947" inkscape:connector-curvature="0" fill="none" stroke="#FFFFFF" stroke-width="4.0265" d="
													M240,648.361h120l60.001,103.997L360,856.36H240l-59.999-104.001L240,648.361z"/>
											</g>
											<g id="g8949" transform="matrix(0.98714604,0,0,0.98714084,2.2837926,-1454.0597)">
												<path id="path8951" inkscape:connector-curvature="0" fill="none" stroke="#FFFFFF" stroke-width="4.0265" d="
													M240,648.359h120l60.001,103.997L360,856.357H240l-59.999-104.001L240,648.359z"/>
											</g>
											<g id="g8953" transform="matrix(0.98714604,0,0,0.98714084,2.2837926,-1663.3594)">
												<path id="path8955" inkscape:connector-curvature="0" fill="none" stroke="#FFFFFF" stroke-width="4.0265" d="
													M240,648.36h120l60.001,103.997L360,856.359H240l-59.999-104.001L240,648.36z"/>
											</g>
											<g id="g8957" transform="matrix(0.98714604,0,0,0.98714084,2.2837926,-1872.6591)">
												<path id="path8959" inkscape:connector-curvature="0" fill="none" stroke="#FFFFFF" stroke-width="4.0265" d="
													M240,648.357h120l60.001,104.001L360,856.356H240l-59.999-103.997L240,648.357z"/>
											</g>
											<g id="g8961" transform="matrix(0.98714604,0,0,0.98714084,180.37514,-93.609469)">
												<path id="path8963" inkscape:connector-curvature="0" fill="none" stroke="#FFFFFF" stroke-width="4.0265" d="
													M240.001,648.361h119.998l60.003,103.999L359.999,856.36H240.001L180.002,752.36L240.001,648.361z"/>
											</g>
											<path id="path8965" inkscape:connector-curvature="0" fill="none" stroke="#FFFFFF" stroke-width="4.0265" d="
												M359.354,857.337l58.09-104.848l118.255,1.04l58.088,103.808"/>
											<g id="g8967" transform="matrix(0.98714604,0,0,0.98714084,180.37514,-302.9092)">
												<path id="path8969" inkscape:connector-curvature="0" fill="none" stroke="#FFFFFF" stroke-width="4.0265" d="
													M240.001,648.36h119.998l60.003,103.999l-60.003,103.999H240.001L180.002,752.36L240.001,648.36z"/>
											</g>
											<g id="g8971" transform="matrix(0.98714604,0,0,0.98714084,180.37514,-512.20893)">
												<path id="path8973" inkscape:connector-curvature="0" fill="none" stroke="#FFFFFF" stroke-width="4.0265" d="
													M240.001,648.359h119.998l60.003,103.999L359.999,856.36H240.001l-59.999-104.001L240.001,648.359z"/>
											</g>
											<g id="g8975" transform="matrix(0.98714604,0,0,0.98714084,180.37514,-721.50866)">
												<path id="path8977" inkscape:connector-curvature="0" fill="none" stroke="#FFFFFF" stroke-width="4.0265" d="
													M240.001,648.358h119.998l60.003,103.999l-60.003,104.001H240.001l-59.999-104.001L240.001,648.358z"/>
											</g>
											<g id="g8979" transform="matrix(0.98714604,0,0,0.98714084,180.37514,-930.80839)">
												<path id="path8981" inkscape:connector-curvature="0" fill="none" stroke="#FFFFFF" stroke-width="4.0265" d="
													M240.001,648.356h119.998l60.003,104.001l-60.003,104.001H240.001l-59.999-104.001L240.001,648.356z"/>
											</g>
											<g id="g8983" transform="matrix(0.98714604,0,0,0.98714084,180.37514,-1140.1081)">
												<path id="path8985" inkscape:connector-curvature="0" fill="none" stroke="#FFFFFF" stroke-width="4.0265" d="
													M240.001,648.357h119.998l60.003,104.001L359.999,856.36H240.001l-59.999-104.001L240.001,648.357z"/>
											</g>
											<g id="g8987" transform="matrix(0.98714604,0,0,0.98714084,180.37514,-1349.4078)">
												<path id="path8989" inkscape:connector-curvature="0" fill="none" stroke="#FFFFFF" stroke-width="4.0265" d="
													M240.001,648.358h119.998l60.003,104.001l-60.003,103.997H240.001l-59.999-103.997L240.001,648.358z"/>
											</g>
											<g id="g8991" transform="matrix(0.98714604,0,0,0.98714084,180.37514,-1558.7075)">
												<path id="path8993" inkscape:connector-curvature="0" fill="none" stroke="#FFFFFF" stroke-width="4.0265" d="
													M240.001,648.355h119.998l60.003,104.001l-60.003,103.997H240.001l-59.999-103.997L240.001,648.355z"/>
											</g>
											<g id="g8995" transform="matrix(0.98714604,0,0,0.98714084,180.37514,-1768.0072)">
												<path id="path8997" inkscape:connector-curvature="0" fill="none" stroke="#FFFFFF" stroke-width="4.0265" d="
													M240.001,648.356h119.998l60.003,104.001l-60.003,103.997H240.001l-59.999-103.997L240.001,648.356z"/>
											</g>
											<path id="path8999" inkscape:connector-curvature="0" fill="none" stroke="#FFFFFF" stroke-width="4.0265" d="
												M357.297-1233.984l60.969,103.251l116.459,0.784l59.401-106.378"/>
										</g>
										<g id="g9001" transform="matrix(1.000007,0,0,0.99872895,1063.6044,1.0903787)">
											<g id="g9003" transform="matrix(0.98714604,0,0,0.98714084,2.2837926,11.038384)">
												<path id="path9005" inkscape:connector-curvature="0" fill="none" stroke="#FFFFFF" stroke-width="4.0265" d="
													M240.001,648.358h119.998l60.003,104.001l-60.003,103.999H240.001l-59.999-103.999L240.001,648.358z"/>
											</g>
											<g id="g9007" transform="matrix(0.98714604,0,0,0.98714084,2.2837926,-198.26135)">
												<path id="path9009" inkscape:connector-curvature="0" fill="none" stroke="#FFFFFF" stroke-width="4.0265" d="
													M240.001,648.357h119.998l60.003,104.001l-60.003,103.999H240.001l-59.999-103.999L240.001,648.357z"/>
											</g>
											<g id="g9011" transform="matrix(0.98714604,0,0,0.98714084,2.2837926,-407.56108)">
												<path id="path9013" inkscape:connector-curvature="0" fill="none" stroke="#FFFFFF" stroke-width="4.0265" d="
													M240.001,648.357h119.998l60.003,104.001l-60.003,103.999H240.001l-59.999-103.999L240.001,648.357z"/>
											</g>
											<g id="g9015" transform="matrix(0.98714604,0,0,0.98714084,2.2837926,-616.86081)">
												<path id="path9017" inkscape:connector-curvature="0" fill="none" stroke="#FFFFFF" stroke-width="4.0265" d="
													M240.001,648.358h119.998l60.003,103.999l-60.003,103.999H240.001l-59.999-103.999L240.001,648.358z"/>
											</g>
											<g id="g9019" transform="matrix(0.98714604,0,0,0.98714084,2.2837926,-826.16054)">
												<path id="path9021" inkscape:connector-curvature="0" fill="none" stroke="#FFFFFF" stroke-width="4.0265" d="
													M240.001,648.357h119.998l60.003,103.999l-60.003,103.999H240.001l-59.999-103.999L240.001,648.357z"/>
											</g>
											<g id="g9023" transform="matrix(0.98714604,0,0,0.98714084,2.2837926,-1035.4603)">
												<path id="path9025" inkscape:connector-curvature="0" fill="none" stroke="#FFFFFF" stroke-width="4.0265" d="
													M240.001,648.356h119.998l60.003,104.001l-60.003,103.997H240.001l-59.999-103.997L240.001,648.356z"/>
											</g>
											<g id="g9027" transform="matrix(0.98714604,0,0,0.98714084,2.2837926,-1244.76)">
												<path id="path9029" inkscape:connector-curvature="0" fill="none" stroke="#FFFFFF" stroke-width="4.0265" d="
													M240.001,648.358h119.998l60.003,103.997l-60.003,104.001H240.001l-59.999-104.001L240.001,648.358z"/>
											</g>
											<g id="g9031" transform="matrix(0.98714604,0,0,0.98714084,2.2837926,-1454.0597)">
												<path id="path9033" inkscape:connector-curvature="0" fill="none" stroke="#FFFFFF" stroke-width="4.0265" d="
													M240.001,648.355h119.998l60.003,103.997l-60.003,104.001H240.001l-59.999-104.001L240.001,648.355z"/>
											</g>
											<g id="g9035" transform="matrix(0.98714604,0,0,0.98714084,2.2837926,-1663.3594)">
												<path id="path9037" inkscape:connector-curvature="0" fill="none" stroke="#FFFFFF" stroke-width="4.0265" d="
													M240.001,648.356h119.998l60.003,103.997l-60.003,104.001H240.001l-59.999-104.001L240.001,648.356z"/>
											</g>
											<g id="g9039" transform="matrix(0.98714604,0,0,0.98714084,2.2837926,-1872.6591)">
												<path id="path9041" inkscape:connector-curvature="0" fill="none" stroke="#FFFFFF" stroke-width="4.0265" d="
													M240.001,648.353h119.998l60.003,104.001l-60.003,103.997H240.001l-59.999-103.997L240.001,648.353z"/>
											</g>
											<g id="g9043" transform="matrix(0.98714604,0,0,0.98714084,180.37514,-93.609469)">
												<path id="path9045" inkscape:connector-curvature="0" fill="none" stroke="#FFFFFF" stroke-width="4.0265" d="
													M240.002,648.357H360l60.003,103.999L360,856.356H240.002l-59.999-103.999L240.002,648.357z"/>
											</g>
											<path id="path9047" inkscape:connector-curvature="0" fill="none" stroke="#FFFFFF" stroke-width="4.0265" d="
												M359.353,857.333l58.092-104.848l118.255,1.04l58.092,103.808"/>
											<g id="g9049" transform="matrix(0.98714604,0,0,0.98714084,180.37514,-302.9092)">
												<path id="path9051" inkscape:connector-curvature="0" fill="none" stroke="#FFFFFF" stroke-width="4.0265" d="
													M240.002,648.356H360l60.003,103.999L360,856.355H240.002l-59.999-103.999L240.002,648.356z"/>
											</g>
											<g id="g9053" transform="matrix(0.98714604,0,0,0.98714084,180.37514,-512.20893)">
												<path id="path9055" inkscape:connector-curvature="0" fill="none" stroke="#FFFFFF" stroke-width="4.0265" d="
													M240.002,648.356H360l60.003,103.999L360,856.357H240.002l-59.999-104.001L240.002,648.356z"/>
											</g>
											<g id="g9057" transform="matrix(0.98714604,0,0,0.98714084,180.37514,-721.50866)">
												<path id="path9059" inkscape:connector-curvature="0" fill="none" stroke="#FFFFFF" stroke-width="4.0265" d="
													M240.002,648.356H360l60.003,103.999L360,856.356H240.002l-59.999-104.001L240.002,648.356z"/>
											</g>
											<g id="g9061" transform="matrix(0.98714604,0,0,0.98714084,180.37514,-930.80839)">
												<path id="path9063" inkscape:connector-curvature="0" fill="none" stroke="#FFFFFF" stroke-width="4.0265" d="
													M240.002,648.353H360l60.003,104.001L360,856.356H240.002l-59.999-104.001L240.002,648.353z"/>
											</g>
											<g id="g9065" transform="matrix(0.98714604,0,0,0.98714084,180.37514,-1140.1081)">
												<path id="path9067" inkscape:connector-curvature="0" fill="none" stroke="#FFFFFF" stroke-width="4.0265" d="
													M240.002,648.354H360l60.003,104.001L360,856.357H240.002l-59.999-104.001L240.002,648.354z"/>
											</g>
											<g id="g9069" transform="matrix(0.98714604,0,0,0.98714084,180.37514,-1349.4078)">
												<path id="path9071" inkscape:connector-curvature="0" fill="none" stroke="#FFFFFF" stroke-width="4.0265" d="
													M240.002,648.355H360l60.003,104.001L360,856.354H240.002l-59.999-103.997L240.002,648.355z"/>
											</g>
											<g id="g9073" transform="matrix(0.98714604,0,0,0.98714084,180.37514,-1558.7075)">
												<path id="path9075" inkscape:connector-curvature="0" fill="none" stroke="#FFFFFF" stroke-width="4.0265" d="
													M240.002,648.352H360l60.003,104.001L360,856.351H240.002l-59.999-103.997L240.002,648.352z"/>
											</g>
											<g id="g9077" transform="matrix(0.98714604,0,0,0.98714084,180.37514,-1768.0072)">
												<path id="path9079" inkscape:connector-curvature="0" fill="none" stroke="#FFFFFF" stroke-width="4.0265" d="
													M240.002,648.353H360l60.003,104.001L360,856.352H240.002l-59.999-103.997L240.002,648.353z"/>
											</g>
											<path id="path9081" inkscape:connector-curvature="0" fill="none" stroke="#FFFFFF" stroke-width="4.0265" d="
												M357.297-1233.987l60.965,103.251l116.463,0.784l59.401-106.378"/>
										</g>
										<g id="g9083" transform="matrix(1.000007,0,0,0.99872895,1417.8088,1.0903787)">
											<g id="g9085" transform="matrix(0.98714604,0,0,0.98714084,2.2837926,11.038384)">
												<path id="path9087" inkscape:connector-curvature="0" fill="none" stroke="#FFFFFF" stroke-width="4.0265" d="
													M240.002,648.355h119.998l60.003,104.001l-60.003,103.999H240.002l-59.999-103.999L240.002,648.355z"/>
											</g>
											<g id="g9089" transform="matrix(0.98714604,0,0,0.98714084,2.2837926,-198.26135)">
												<path id="path9091" inkscape:connector-curvature="0" fill="none" stroke="#FFFFFF" stroke-width="4.0265" d="
													M240.002,648.354H360l60.003,104.001L360,856.355H240.002l-59.999-103.999L240.002,648.354z"/>
											</g>
											<g id="g9093" transform="matrix(0.98714604,0,0,0.98714084,2.2837926,-407.56108)">
												<path id="path9095" inkscape:connector-curvature="0" fill="none" stroke="#FFFFFF" stroke-width="4.0265" d="
													M240.002,648.354H360l60.003,104.001L360,856.354H240.002l-59.999-103.999L240.002,648.354z"/>
											</g>
											<g id="g9097" transform="matrix(0.98714604,0,0,0.98714084,2.2837926,-616.86081)">
												<path id="path9099" inkscape:connector-curvature="0" fill="none" stroke="#FFFFFF" stroke-width="4.0265" d="
													M240.002,648.355H360l60.003,103.999L360,856.354H240.002l-59.999-103.999L240.002,648.355z"/>
											</g>
											<g id="g9101" transform="matrix(0.98714604,0,0,0.98714084,2.2837926,-826.16054)">
												<path id="path9103" inkscape:connector-curvature="0" fill="none" stroke="#FFFFFF" stroke-width="4.0265" d="
													M240.002,648.355H360l60.003,103.999L360,856.354H240.002l-59.999-103.999L240.002,648.355z"/>
											</g>
											<g id="g9105" transform="matrix(0.98714604,0,0,0.98714084,2.2837926,-1035.4603)">
												<path id="path9107" inkscape:connector-curvature="0" fill="none" stroke="#FFFFFF" stroke-width="4.0265" d="
													M240.002,648.354H360l60.003,104.001L360,856.353H240.002l-59.999-103.997L240.002,648.354z"/>
											</g>
											<g id="g9109" transform="matrix(0.98714604,0,0,0.98714084,2.2837926,-1244.76)">
												<path id="path9111" inkscape:connector-curvature="0" fill="none" stroke="#FFFFFF" stroke-width="4.0265" d="
													M240.002,648.356H360l60.003,103.997L360,856.354H240.002l-59.999-104.001L240.002,648.356z"/>
											</g>
											<g id="g9113" transform="matrix(0.98714604,0,0,0.98714084,2.2837926,-1454.0597)">
												<path id="path9115" inkscape:connector-curvature="0" fill="none" stroke="#FFFFFF" stroke-width="4.0265" d="
													M240.002,648.353H360l60.003,103.997L360,856.352H240.002L180.003,752.35L240.002,648.353z"/>
											</g>
											<g id="g9117" transform="matrix(0.98714604,0,0,0.98714084,2.2837926,-1663.3594)">
												<path id="path9119" inkscape:connector-curvature="0" fill="none" stroke="#FFFFFF" stroke-width="4.0265" d="
													M240.002,648.354H360l60.003,103.997L360,856.353H240.002l-59.999-104.001L240.002,648.354z"/>
											</g>
											<g id="g9121" transform="matrix(0.98714604,0,0,0.98714084,2.2837926,-1872.6591)">
												<path id="path9123" inkscape:connector-curvature="0" fill="none" stroke="#FFFFFF" stroke-width="4.0265" d="
													M240.002,648.351H360l60.003,104.001L360,856.35H240.002l-59.999-103.997L240.002,648.351z"/>
											</g>
											<g id="g9125" transform="matrix(0.98714604,0,0,0.98714084,180.37514,-93.609469)">
												<path id="path9127" inkscape:connector-curvature="0" fill="none" stroke="#FFFFFF" stroke-width="4.0265" d="
													M240.003,648.355h119.998L420,752.354l-59.999,103.999H240.003L180,752.354L240.003,648.355z"/>
											</g>
											<path id="path9129" inkscape:connector-curvature="0" fill="none" stroke="#FFFFFF" stroke-width="4.0265" d="
												M359.354,857.331l58.092-104.848l118.255,1.04l58.088,103.808"/>
											<g id="g9131" transform="matrix(0.98714604,0,0,0.98714084,180.37514,-302.9092)">
												<path id="path9133" inkscape:connector-curvature="0" fill="none" stroke="#FFFFFF" stroke-width="4.0265" d="
													M240.003,648.354h119.998L420,752.354l-59.999,103.999H240.003L180,752.354L240.003,648.354z"/>
											</g>
											<g id="g9135" transform="matrix(0.98714604,0,0,0.98714084,180.37514,-512.20893)">
												<path id="path9137" inkscape:connector-curvature="0" fill="none" stroke="#FFFFFF" stroke-width="4.0265" d="
													M240.003,648.354h119.998L420,752.353l-59.999,104.001H240.003L180,752.353L240.003,648.354z"/>
											</g>
											<g id="g9139" transform="matrix(0.98714604,0,0,0.98714084,180.37514,-721.50866)">
												<path id="path9141" inkscape:connector-curvature="0" fill="none" stroke="#FFFFFF" stroke-width="4.0265" d="
													M240.003,648.354h119.998L420,752.353l-59.999,104.001H240.003L180,752.353L240.003,648.354z"/>
											</g>
											<g id="g9143" transform="matrix(0.98714604,0,0,0.98714084,180.37514,-930.80839)">
												<path id="path9145" inkscape:connector-curvature="0" fill="none" stroke="#FFFFFF" stroke-width="4.0265" d="
													M240.003,648.351h119.998L420,752.352l-59.999,104.001H240.003L180,752.352L240.003,648.351z"/>
											</g>
											<g id="g9147" transform="matrix(0.98714604,0,0,0.98714084,180.37514,-1140.1081)">
												<path id="path9149" inkscape:connector-curvature="0" fill="none" stroke="#FFFFFF" stroke-width="4.0265" d="
													M240.003,648.352h119.998L420,752.353l-59.999,104.001H240.003L180,752.353L240.003,648.352z"/>
											</g>
											<g id="g9151" transform="matrix(0.98714604,0,0,0.98714084,180.37514,-1349.4078)">
												<path id="path9153" inkscape:connector-curvature="0" fill="none" stroke="#FFFFFF" stroke-width="4.0265" d="
													M240.003,648.353h119.998L420,752.354l-59.999,103.997H240.003L180,752.354L240.003,648.353z"/>
											</g>
											<g id="g9155" transform="matrix(0.98714604,0,0,0.98714084,180.37514,-1558.7075)">
												<path id="path9157" inkscape:connector-curvature="0" fill="none" stroke="#FFFFFF" stroke-width="4.0265" d="
													M240.003,648.35h119.998L420,752.352l-59.999,103.997H240.003L180,752.352L240.003,648.35z"/>
											</g>
											<g id="g9159" transform="matrix(0.98714604,0,0,0.98714084,180.37514,-1768.0072)">
												<path id="path9161" inkscape:connector-curvature="0" fill="none" stroke="#FFFFFF" stroke-width="4.0265" d="
													M240.003,648.351h119.998L420,752.353L360.001,856.35H240.003L180,752.353L240.003,648.351z"/>
											</g>
											<path id="path9163" inkscape:connector-curvature="0" fill="none" stroke="#FFFFFF" stroke-width="4.0265" d="
												M357.299-1233.989l60.965,103.251l116.463,0.784l59.401-106.378"/>
										</g>
									</g>
								</g>
							</g>
							<g id="g10681" transform="translate(0,-208.99898)">
							</g>
						</g>
					</g>
				</g>
			</g>
		</g>
	</g>
</g>
<path fill="none" stroke="#FFFFFF" stroke-width="4.0265" d="M894.002,40.5"/>
</svg>
