<?xml version="1.0" encoding="UTF-8" standalone="no"?>
<!-- Generator: Adobe Illustrator 15.0.0, SVG Export Plug-In . SVG Version: 6.00 Build 0)  -->

<svg
   xmlns:dc="http://purl.org/dc/elements/1.1/"
   xmlns:cc="http://creativecommons.org/ns#"
   xmlns:rdf="http://www.w3.org/1999/02/22-rdf-syntax-ns#"
   xmlns:svg="http://www.w3.org/2000/svg"
   xmlns="http://www.w3.org/2000/svg"
   xmlns:sodipodi="http://sodipodi.sourceforge.net/DTD/sodipodi-0.dtd"
   xmlns:inkscape="http://www.inkscape.org/namespaces/inkscape"
   version="1.1"
   id="svg2"
   inkscape:version="0.92.4 (5da689c313, 2019-01-14)"
   sodipodi:docname="honeycombbialy.svg"
   x="0px"
   y="0px"
   width="519"
   height="442"
   viewBox="0 0 311.4 265.2"
   enable-background="new 0 0 519 442"
   xml:space="preserve"><metadata
   id="metadata226"><rdf:RDF><cc:Work
       rdf:about=""><dc:format>image/svg+xml</dc:format><dc:type
         rdf:resource="http://purl.org/dc/dcmitype/StillImage" /><dc:title></dc:title></cc:Work></rdf:RDF></metadata><defs
   id="defs224" />
<sodipodi:namedview
   units="px"
   id="base"
   inkscape:window-y="-8"
   inkscape:window-x="-8"
   inkscape:window-height="987"
   inkscape:window-width="1680"
   fit-margin-bottom="0"
   fit-margin-right="0"
   inkscape:snap-global="false"
   inkscape:snap-nodes="true"
   inkscape:snap-others="true"
   inkscape:guide-bbox="true"
   inkscape:current-layer="g8493"
   inkscape:document-units="px"
   inkscape:pageshadow="2"
   inkscape:pageopacity="0.0"
   inkscape:cy="189.13154"
   objecttolerance="1"
   inkscape:cx="130.04917"
   inkscape:zoom="0.86180109"
   fit-margin-left="0"
   showguides="true"
   borderopacity="1.0"
   borderlayer="false"
   fit-margin-top="0"
   bordercolor="#666666"
   showgrid="true"
   pagecolor="#ffffff"
   guidetolerance="1"
   inkscape:window-maximized="1"
   scale-x="0.6"
   inkscape:pagecheckerboard="true">
	<inkscape:grid
   type="xygrid"
   originy="-143.50858"
   originx="-0.00035144211"
   visible="false"
   id="grid8068"
   empspacing="60">
		</inkscape:grid>
	<sodipodi:guide
   id="guide8074"
   orientation="1,0"
   position="-900.00041,456.49144"
   inkscape:locked="false" />
</sodipodi:namedview>
<g
   id="layer1"
   transform="translate(-3.5188407e-4,-466.85331)"
   inkscape:label="ă¬ă‚¤ă¤ăĽ 1"
   inkscape:groupmode="layer">
	<g
   id="g9789"
   transform="matrix(1.000009,0,0,1,-1.3623185e-5,-1.375479e-5)">
		<g
   id="g8249"
   transform="translate(0,30.000004)">
			<g
   id="g8094"
   transform="matrix(0,0.24844322,-0.24825926,0,213.09959,378.21956)">
				<g
   id="g11059"
   transform="matrix(1,0,0,0.99999888,2.6588724e-5,3.0969786e-4)">
					<g
   id="g8281"
   transform="matrix(0,-1.0007331,0.99926742,0,1573.1904,1198.0771)">
						<g
   id="g8493"
   transform="matrix(0,1.0007331,-0.99926743,0,1197.1999,-1574.3443)">
							<g
   id="g9376">
								<g
   id="g10659">
									<g
   id="g9165">
										<g
   id="g8795"
   transform="matrix(1.000007,0,0,0.99872895,-0.00270874,1.0903787)">
											<g
   id="g10620"
   transform="matrix(0.98714604,0,0,0.98714084,2.2837926,11.038384)">
												<path
   id="path8092"
   inkscape:connector-curvature="0"
   d="M 239.998,648.362 H 360 l 60,104.002 -59.999,103.999 H 239.998 L 179.999,752.364 Z"
   style="fill:none;stroke:#ffffff;stroke-width:4.02650023" />
											</g>
											<g
   id="g8705"
   transform="matrix(0.98714604,0,0,0.98714084,2.2837926,-198.26135)">
												<path
   id="path8707"
   inkscape:connector-curvature="0"
   d="M 239.998,648.362 H 360 l 60,104.001 -59.999,103.999 H 300 239.999 L 180,752.363 Z"
   style="fill:none;stroke:#ffffff;stroke-width:4.02650023" />
											</g>
											<g
   id="g8709"
   transform="matrix(0.98714604,0,0,0.98714084,2.2837926,-407.56108)">
												<path
   id="path8711"
   inkscape:connector-curvature="0"
   d="M 239.998,648.361 H 360 l 60,104.002 -59.999,103.999 H 239.998 L 179.999,752.363 Z"
   style="fill:none;stroke:#ffffff;stroke-width:4.02650023" />
											</g>
											<g
   id="g8713"
   transform="matrix(0.98714604,0,0,0.98714084,2.2837926,-616.86081)">
												<path
   id="path8715"
   inkscape:connector-curvature="0"
   d="M 239.998,648.363 H 360 l 60,103.999 -59.999,103.999 H 239.998 L 179.999,752.362 Z"
   style="fill:none;stroke:#ffffff;stroke-width:4.02650023" />
											</g>
											<g
   id="g8717"
   transform="matrix(0.98714604,0,0,0.98714084,2.2837926,-826.16054)">
												<path
   id="path8719"
   inkscape:connector-curvature="0"
   d="M 239.998,648.362 H 360 l 60,104 -59.999,103.999 H 239.998 L 179.999,752.362 Z"
   style="fill:none;stroke:#ffffff;stroke-width:4.02650023" />
											</g>
											<g
   id="g8721"
   transform="matrix(0.98714604,0,0,0.98714084,2.2837926,-1035.4603)">
												<path
   id="path8723"
   inkscape:connector-curvature="0"
   d="M 239.998,648.362 H 360 L 420,752.363 360.001,856.36 H 239.998 L 179.999,752.363 Z"
   style="fill:none;stroke:#ffffff;stroke-width:4.02650023" />
											</g>
											<g
   id="g8725"
   transform="matrix(0.98714604,0,0,0.98714084,2.2837926,-1244.76)">
												<path
   id="path8727"
   inkscape:connector-curvature="0"
   d="M 239.998,648.363 H 360 l 60,103.998 -59.999,104.001 H 239.998 L 179.999,752.361 Z"
   style="fill:none;stroke:#ffffff;stroke-width:4.02650023" />
											</g>
											<g
   id="g8729"
   transform="matrix(0.98714604,0,0,0.98714084,2.2837926,-1454.0597)">
												<path
   id="path8731"
   inkscape:connector-curvature="0"
   d="M 239.998,648.361 H 360 L 420,752.358 360.001,856.36 H 239.998 L 179.999,752.359 Z"
   style="fill:none;stroke:#ffffff;stroke-width:4.02650023" />
											</g>
											<g
   id="g8733"
   transform="matrix(0.98714604,0,0,0.98714084,2.2837926,-1663.3594)">
												<path
   id="path8735"
   inkscape:connector-curvature="0"
   d="M 239.998,648.363 H 360 L 420,752.36 360.001,856.361 H 239.998 L 179.999,752.36 Z"
   style="fill:none;stroke:#ffffff;stroke-width:4.02650023" />
											</g>
											<g
   id="g8737"
   transform="matrix(0.98714604,0,0,0.98714084,2.2837926,-1872.6591)">
												<path
   id="path8739"
   inkscape:connector-curvature="0"
   d="M 239.998,648.36 H 360 l 60,104.002 -59.999,103.997 H 239.998 L 179.999,752.362 Z"
   style="fill:none;stroke:#ffffff;stroke-width:4.02650023" />
											</g>
											<g
   id="g8745"
   transform="matrix(0.98714604,0,0,0.98714084,180.37514,-93.609469)">
												<path
   id="path8747"
   inkscape:connector-curvature="0"
   d="m 239.999,648.364 h 120 L 420,752.363 l -60,104 H 240 L 180,752.364 Z"
   style="fill:none;stroke:#ffffff;stroke-width:4.02650023" />
											</g>
											<path
   id="path8755"
   inkscape:connector-curvature="0"
   d="m 359.353,857.34 58.09,-104.848 118.255,1.04 58.09,103.808"
   style="fill:none;stroke:#ffffff;stroke-width:4.02650023" />
											<g
   id="g8757"
   transform="matrix(0.98714604,0,0,0.98714084,180.37514,-302.9092)">
												<path
   id="path8759"
   inkscape:connector-curvature="0"
   d="m 239.999,648.364 h 120 L 420,752.363 360,856.362 H 240 L 180,752.363 Z"
   style="fill:none;stroke:#ffffff;stroke-width:4.02650023" />
											</g>
											<g
   id="g8761"
   transform="matrix(0.98714604,0,0,0.98714084,180.37514,-512.20893)">
												<path
   id="path8763"
   inkscape:connector-curvature="0"
   d="m 239.999,648.363 h 120 L 420,752.362 360,856.364 H 240 L 180,752.362 Z"
   style="fill:none;stroke:#ffffff;stroke-width:4.02650023" />
											</g>
											<g
   id="g8765"
   transform="matrix(0.98714604,0,0,0.98714084,180.37514,-721.50866)">
												<path
   id="path8767"
   inkscape:connector-curvature="0"
   d="m 239.999,648.362 h 120 L 420,752.361 360,856.363 H 240 L 180,752.361 Z"
   style="fill:none;stroke:#ffffff;stroke-width:4.02650023" />
											</g>
											<g
   id="g8769"
   transform="matrix(0.98714604,0,0,0.98714084,180.37514,-930.80839)">
												<path
   id="path8771"
   inkscape:connector-curvature="0"
   d="m 239.999,648.359 h 120 L 420,752.36 360,856.362 H 240 L 180,752.361 Z"
   style="fill:none;stroke:#ffffff;stroke-width:4.02650023" />
											</g>
											<g
   id="g8773"
   transform="matrix(0.98714604,0,0,0.98714084,180.37514,-1140.1081)">
												<path
   id="path8775"
   inkscape:connector-curvature="0"
   d="m 239.999,648.361 h 120 L 420,752.362 360,856.364 H 240 L 180,752.363 Z"
   style="fill:none;stroke:#ffffff;stroke-width:4.02650023" />
											</g>
											<g
   id="g8777"
   transform="matrix(0.98714604,0,0,0.98714084,180.37514,-1349.4078)">
												<path
   id="path8779"
   inkscape:connector-curvature="0"
   d="m 239.999,648.362 h 120 L 420,752.363 360,856.361 H 240 L 180,752.364 Z"
   style="fill:none;stroke:#ffffff;stroke-width:4.02650023" />
											</g>
											<g
   id="g8781"
   transform="matrix(0.98714604,0,0,0.98714084,180.37514,-1558.7075)">
												<path
   id="path8783"
   inkscape:connector-curvature="0"
   d="m 239.999,648.359 h 120 L 420,752.36 360,856.358 H 240 L 180,752.361 Z"
   style="fill:none;stroke:#ffffff;stroke-width:4.02650023" />
											</g>
											<g
   id="g8785"
   transform="matrix(0.98714604,0,0,0.98714084,180.37514,-1768.0072)">
												<path
   id="path8787"
   inkscape:connector-curvature="0"
   d="m 239.999,648.361 h 120 L 420,752.362 360,856.359 H 240 L 180,752.362 Z"
   style="fill:none;stroke:#ffffff;stroke-width:4.02650023" />
											</g>
											<path
   id="path8793"
   inkscape:connector-curvature="0"
   d="m 357.297,-1233.98 60.965,103.251 116.461,0.784 59.403,-106.378"
   style="fill:none;stroke:#ffffff;stroke-width:4.02650023" />
										</g>
										<g
   id="g8837"
   transform="matrix(1.000007,0,0,0.99872895,355.19319,1.0903787)">
											<g
   id="g8839"
   transform="matrix(0.98714604,0,0,0.98714084,2.2837926,11.038384)">
												<path
   id="path8841"
   inkscape:connector-curvature="0"
   d="m 239.999,648.362 h 120 L 420,752.364 359.999,856.363 h -120 L 180,752.364 Z"
   style="fill:none;stroke:#ffffff;stroke-width:4.02650023" />
											</g>
											<g
   id="g8843"
   transform="matrix(0.98714604,0,0,0.98714084,2.2837926,-198.26135)">
												<path
   id="path8845"
   inkscape:connector-curvature="0"
   d="m 239.999,648.362 h 120 L 420,752.363 359.999,856.362 h -120 L 180,752.363 Z"
   style="fill:none;stroke:#ffffff;stroke-width:4.02650023" />
											</g>
											<g
   id="g8847"
   transform="matrix(0.98714604,0,0,0.98714084,2.2837926,-407.56108)">
												<path
   id="path8849"
   inkscape:connector-curvature="0"
   d="m 239.999,648.361 h 120 L 420,752.362 359.999,856.361 h -120 L 180,752.362 Z"
   style="fill:none;stroke:#ffffff;stroke-width:4.02650023" />
											</g>
											<g
   id="g8851"
   transform="matrix(0.98714604,0,0,0.98714084,2.2837926,-616.86081)">
												<path
   id="path8853"
   inkscape:connector-curvature="0"
   d="m 239.999,648.362 h 120 l 60.001,104 -60.001,103.999 h -120 L 180,752.362 Z"
   style="fill:none;stroke:#ffffff;stroke-width:4.02650023" />
											</g>
											<g
   id="g8855"
   transform="matrix(0.98714604,0,0,0.98714084,2.2837926,-826.16054)">
												<path
   id="path8857"
   inkscape:connector-curvature="0"
   d="m 239.999,648.362 h 120 L 420,752.361 359.999,856.36 h -120 L 180,752.361 Z"
   style="fill:none;stroke:#ffffff;stroke-width:4.02650023" />
											</g>
											<g
   id="g8859"
   transform="matrix(0.98714604,0,0,0.98714084,2.2837926,-1035.4603)">
												<path
   id="path8861"
   inkscape:connector-curvature="0"
   d="m 239.999,648.361 h 120 L 420,752.363 359.999,856.36 h -120 L 180,752.363 Z"
   style="fill:none;stroke:#ffffff;stroke-width:4.02650023" />
											</g>
											<g
   id="g8863"
   transform="matrix(0.98714604,0,0,0.98714084,2.2837926,-1244.76)">
												<path
   id="path8865"
   inkscape:connector-curvature="0"
   d="m 239.999,648.363 h 120 L 420,752.36 359.999,856.361 h -120 L 180,752.36 Z"
   style="fill:none;stroke:#ffffff;stroke-width:4.02650023" />
											</g>
											<g
   id="g8867"
   transform="matrix(0.98714604,0,0,0.98714084,2.2837926,-1454.0597)">
												<path
   id="path8869"
   inkscape:connector-curvature="0"
   d="m 239.999,648.361 h 120 L 420,752.358 359.999,856.359 h -120 L 180,752.358 Z"
   style="fill:none;stroke:#ffffff;stroke-width:4.02650023" />
											</g>
											<g
   id="g8871"
   transform="matrix(0.98714604,0,0,0.98714084,2.2837926,-1663.3594)">
												<path
   id="path8873"
   inkscape:connector-curvature="0"
   d="m 239.999,648.362 h 120 L 420,752.36 359.999,856.361 h -120 L 180,752.36 Z"
   style="fill:none;stroke:#ffffff;stroke-width:4.02650023" />
											</g>
											<g
   id="g8875"
   transform="matrix(0.98714604,0,0,0.98714084,2.2837926,-1872.6591)">
												<path
   id="path8877"
   inkscape:connector-curvature="0"
   d="m 239.999,648.36 h 120 L 420,752.361 359.999,856.358 h -120 L 180,752.361 Z"
   style="fill:none;stroke:#ffffff;stroke-width:4.02650023" />
											</g>
											<g
   id="g8879"
   transform="matrix(0.98714604,0,0,0.98714084,180.37514,-93.609469)">
												<path
   id="path8881"
   inkscape:connector-curvature="0"
   d="M 240,648.364 H 360 L 420.001,752.363 360,856.362 H 240 L 180.001,752.363 Z"
   style="fill:none;stroke:#ffffff;stroke-width:4.02650023" />
											</g>
											<path
   id="path8883"
   inkscape:connector-curvature="0"
   d="m 359.354,857.34 58.09,-104.848 118.255,1.04 58.09,103.808"
   style="fill:none;stroke:#ffffff;stroke-width:4.02650023" />
											<g
   id="g8885"
   transform="matrix(0.98714604,0,0,0.98714084,180.37514,-302.9092)">
												<path
   id="path8887"
   inkscape:connector-curvature="0"
   d="M 240,648.363 H 360 L 420.001,752.362 360,856.361 H 240 L 180.001,752.362 Z"
   style="fill:none;stroke:#ffffff;stroke-width:4.02650023" />
											</g>
											<g
   id="g8889"
   transform="matrix(0.98714604,0,0,0.98714084,180.37514,-512.20893)">
												<path
   id="path8891"
   inkscape:connector-curvature="0"
   d="M 240,648.362 H 360 L 420.001,752.361 360,856.362 H 240 L 180.001,752.361 Z"
   style="fill:none;stroke:#ffffff;stroke-width:4.02650023" />
											</g>
											<g
   id="g8893"
   transform="matrix(0.98714604,0,0,0.98714084,180.37514,-721.50866)">
												<path
   id="path8895"
   inkscape:connector-curvature="0"
   d="M 240,648.361 H 360 L 420.001,752.36 360,856.361 H 240 L 180.001,752.36 Z"
   style="fill:none;stroke:#ffffff;stroke-width:4.02650023" />
											</g>
											<g
   id="g8897"
   transform="matrix(0.98714604,0,0,0.98714084,180.37514,-930.80839)">
												<path
   id="path8899"
   inkscape:connector-curvature="0"
   d="M 240,648.359 H 360 L 420.001,752.36 360,856.361 H 240 L 180.001,752.36 Z"
   style="fill:none;stroke:#ffffff;stroke-width:4.02650023" />
											</g>
											<g
   id="g8901"
   transform="matrix(0.98714604,0,0,0.98714084,180.37514,-1140.1081)">
												<path
   id="path8903"
   inkscape:connector-curvature="0"
   d="M 240,648.361 H 360 L 420.001,752.362 360,856.363 H 240 L 180.001,752.362 Z"
   style="fill:none;stroke:#ffffff;stroke-width:4.02650023" />
											</g>
											<g
   id="g8905"
   transform="matrix(0.98714604,0,0,0.98714084,180.37514,-1349.4078)">
												<path
   id="path8907"
   inkscape:connector-curvature="0"
   d="M 240,648.362 H 360 L 420.001,752.363 360,856.36 H 240 L 180.001,752.363 Z"
   style="fill:none;stroke:#ffffff;stroke-width:4.02650023" />
											</g>
											<g
   id="g8909"
   transform="matrix(0.98714604,0,0,0.98714084,180.37514,-1558.7075)">
												<path
   id="path8911"
   inkscape:connector-curvature="0"
   d="M 240,648.359 H 360 L 420.001,752.36 360,856.357 H 240 L 180.001,752.36 Z"
   style="fill:none;stroke:#ffffff;stroke-width:4.02650023" />
											</g>
											<g
   id="g8913"
   transform="matrix(0.98714604,0,0,0.98714084,180.37514,-1768.0072)">
												<path
   id="path8915"
   inkscape:connector-curvature="0"
   d="M 240,648.36 H 360 L 420.001,752.361 360,856.358 H 240 L 180.001,752.361 Z"
   style="fill:none;stroke:#ffffff;stroke-width:4.02650023" />
											</g>
											<path
   id="path8917"
   inkscape:connector-curvature="0"
   d="m 357.296,-1233.981 60.967,103.251 116.461,0.784 59.403,-106.378"
   style="fill:none;stroke:#ffffff;stroke-width:4.02650023" />
										</g>
										<g
   id="g8919"
   transform="matrix(1.000007,0,0,0.99872895,709.39891,1.0903787)">
											<g
   id="g8921"
   transform="matrix(0.98714604,0,0,0.98714084,2.2837926,11.038384)">
												<path
   id="path8923"
   inkscape:connector-curvature="0"
   d="m 240,648.362 h 120 l 60.001,104.001 -60.001,104 H 240 L 180.001,752.364 Z"
   style="fill:none;stroke:#ffffff;stroke-width:4.02650023" />
											</g>
											<g
   id="g8925"
   transform="matrix(0.98714604,0,0,0.98714084,2.2837926,-198.26135)">
												<path
   id="path8927"
   inkscape:connector-curvature="0"
   d="m 240,648.361 h 120 l 60.001,104.001 -60.001,104 H 240 L 180.001,752.363 Z"
   style="fill:none;stroke:#ffffff;stroke-width:4.02650023" />
											</g>
											<g
   id="g8929"
   transform="matrix(0.98714604,0,0,0.98714084,2.2837926,-407.56108)">
												<path
   id="path8931"
   inkscape:connector-curvature="0"
   d="m 240,648.36 h 120 l 60.001,104.001 -60.001,104 H 240 L 180.001,752.362 Z"
   style="fill:none;stroke:#ffffff;stroke-width:4.02650023" />
											</g>
											<g
   id="g8933"
   transform="matrix(0.98714604,0,0,0.98714084,2.2837926,-616.86081)">
												<path
   id="path8935"
   inkscape:connector-curvature="0"
   d="m 240,648.362 h 120 l 60.001,103.999 -60.001,104 H 240 L 180.001,752.362 Z"
   style="fill:none;stroke:#ffffff;stroke-width:4.02650023" />
											</g>
											<g
   id="g8937"
   transform="matrix(0.98714604,0,0,0.98714084,2.2837926,-826.16054)">
												<path
   id="path8939"
   inkscape:connector-curvature="0"
   d="M 240,648.361 H 360 L 420.001,752.36 360,856.36 H 240 L 180.001,752.361 Z"
   style="fill:none;stroke:#ffffff;stroke-width:4.02650023" />
											</g>
											<g
   id="g8941"
   transform="matrix(0.98714604,0,0,0.98714084,2.2837926,-1035.4603)">
												<path
   id="path8943"
   inkscape:connector-curvature="0"
   d="M 240,648.36 H 360 L 420.001,752.361 360,856.359 H 240 L 180.001,752.362 Z"
   style="fill:none;stroke:#ffffff;stroke-width:4.02650023" />
											</g>
											<g
   id="g8945"
   transform="matrix(0.98714604,0,0,0.98714084,2.2837926,-1244.76)">
												<path
   id="path8947"
   inkscape:connector-curvature="0"
   d="M 240,648.361 H 360 L 420.001,752.358 360,856.36 H 240 L 180.001,752.359 Z"
   style="fill:none;stroke:#ffffff;stroke-width:4.02650023" />
											</g>
											<g
   id="g8949"
   transform="matrix(0.98714604,0,0,0.98714084,2.2837926,-1454.0597)">
												<path
   id="path8951"
   inkscape:connector-curvature="0"
   d="M 240,648.359 H 360 L 420.001,752.356 360,856.357 H 240 L 180.001,752.356 Z"
   style="fill:none;stroke:#ffffff;stroke-width:4.02650023" />
											</g>
											<g
   id="g8953"
   transform="matrix(0.98714604,0,0,0.98714084,2.2837926,-1663.3594)">
												<path
   id="path8955"
   inkscape:connector-curvature="0"
   d="M 240,648.36 H 360 L 420.001,752.357 360,856.359 H 240 L 180.001,752.358 Z"
   style="fill:none;stroke:#ffffff;stroke-width:4.02650023" />
											</g>
											<g
   id="g8957"
   transform="matrix(0.98714604,0,0,0.98714084,2.2837926,-1872.6591)">
												<path
   id="path8959"
   inkscape:connector-curvature="0"
   d="M 240,648.357 H 360 L 420.001,752.358 360,856.356 H 240 L 180.001,752.359 Z"
   style="fill:none;stroke:#ffffff;stroke-width:4.02650023" />
											</g>
											<g
   id="g8961"
   transform="matrix(0.98714604,0,0,0.98714084,180.37514,-93.609469)">
												<path
   id="path8963"
   inkscape:connector-curvature="0"
   d="m 240.001,648.361 h 119.998 l 60.003,103.999 -60.003,104 H 240.001 l -59.999,-104 z"
   style="fill:none;stroke:#ffffff;stroke-width:4.02650023" />
											</g>
											<path
   id="path8965"
   inkscape:connector-curvature="0"
   d="m 359.354,857.337 58.09,-104.848 118.255,1.04 58.088,103.808"
   style="fill:none;stroke:#ffffff;stroke-width:4.02650023" />
											<g
   id="g8967"
   transform="matrix(0.98714604,0,0,0.98714084,180.37514,-302.9092)">
												<path
   id="path8969"
   inkscape:connector-curvature="0"
   d="m 240.001,648.36 h 119.998 l 60.003,103.999 -60.003,103.999 H 240.001 L 180.002,752.36 Z"
   style="fill:none;stroke:#ffffff;stroke-width:4.02650023" />
											</g>
											<g
   id="g8971"
   transform="matrix(0.98714604,0,0,0.98714084,180.37514,-512.20893)">
												<path
   id="path8973"
   inkscape:connector-curvature="0"
   d="M 240.001,648.359 H 359.999 L 420.002,752.358 359.999,856.36 H 240.001 L 180.002,752.359 Z"
   style="fill:none;stroke:#ffffff;stroke-width:4.02650023" />
											</g>
											<g
   id="g8975"
   transform="matrix(0.98714604,0,0,0.98714084,180.37514,-721.50866)">
												<path
   id="path8977"
   inkscape:connector-curvature="0"
   d="m 240.001,648.358 h 119.998 l 60.003,103.999 -60.003,104.001 H 240.001 L 180.002,752.357 Z"
   style="fill:none;stroke:#ffffff;stroke-width:4.02650023" />
											</g>
											<g
   id="g8979"
   transform="matrix(0.98714604,0,0,0.98714084,180.37514,-930.80839)">
												<path
   id="path8981"
   inkscape:connector-curvature="0"
   d="m 240.001,648.356 h 119.998 l 60.003,104.001 -60.003,104.001 H 240.001 L 180.002,752.357 Z"
   style="fill:none;stroke:#ffffff;stroke-width:4.02650023" />
											</g>
											<g
   id="g8983"
   transform="matrix(0.98714604,0,0,0.98714084,180.37514,-1140.1081)">
												<path
   id="path8985"
   inkscape:connector-curvature="0"
   d="M 240.001,648.357 H 359.999 L 420.002,752.358 359.999,856.36 H 240.001 L 180.002,752.359 Z"
   style="fill:none;stroke:#ffffff;stroke-width:4.02650023" />
											</g>
											<g
   id="g8987"
   transform="matrix(0.98714604,0,0,0.98714084,180.37514,-1349.4078)">
												<path
   id="path8989"
   inkscape:connector-curvature="0"
   d="m 240.001,648.358 h 119.998 l 60.003,104.001 -60.003,103.997 H 240.001 L 180.002,752.359 Z"
   style="fill:none;stroke:#ffffff;stroke-width:4.02650023" />
											</g>
											<g
   id="g8991"
   transform="matrix(0.98714604,0,0,0.98714084,180.37514,-1558.7075)">
												<path
   id="path8993"
   inkscape:connector-curvature="0"
   d="m 240.001,648.355 h 119.998 l 60.003,104.001 -60.003,103.997 H 240.001 L 180.002,752.356 Z"
   style="fill:none;stroke:#ffffff;stroke-width:4.02650023" />
											</g>
											<g
   id="g8995"
   transform="matrix(0.98714604,0,0,0.98714084,180.37514,-1768.0072)">
												<path
   id="path8997"
   inkscape:connector-curvature="0"
   d="m 240.001,648.356 h 119.998 l 60.003,104.001 -60.003,103.997 H 240.001 L 180.002,752.357 Z"
   style="fill:none;stroke:#ffffff;stroke-width:4.02650023" />
											</g>
											<path
   id="path8999"
   inkscape:connector-curvature="0"
   d="m 357.297,-1233.984 60.969,103.251 116.459,0.784 59.401,-106.378"
   style="fill:none;stroke:#ffffff;stroke-width:4.02650023" />
										</g>
										<g
   id="g9001"
   transform="matrix(1.000007,0,0,0.99872895,1063.6044,1.0903787)">
											<g
   id="g9003"
   transform="matrix(0.98714604,0,0,0.98714084,2.2837926,11.038384)">
												<path
   id="path9005"
   inkscape:connector-curvature="0"
   d="m 240.001,648.358 h 119.998 l 60.003,104.001 -60.003,103.999 H 240.001 L 180.002,752.359 Z"
   style="fill:none;stroke:#ffffff;stroke-width:4.02650023" />
											</g>
											<g
   id="g9007"
   transform="matrix(0.98714604,0,0,0.98714084,2.2837926,-198.26135)">
												<path
   id="path9009"
   inkscape:connector-curvature="0"
   d="m 240.001,648.357 h 119.998 l 60.003,104.001 -60.003,103.999 H 240.001 L 180.002,752.358 Z"
   style="fill:none;stroke:#ffffff;stroke-width:4.02650023" />
											</g>
											<g
   id="g9011"
   transform="matrix(0.98714604,0,0,0.98714084,2.2837926,-407.56108)">
												<path
   id="path9013"
   inkscape:connector-curvature="0"
   d="m 240.001,648.357 h 119.998 l 60.003,104.001 -60.003,103.999 H 240.001 L 180.002,752.358 Z"
   style="fill:none;stroke:#ffffff;stroke-width:4.02650023" />
											</g>
											<g
   id="g9015"
   transform="matrix(0.98714604,0,0,0.98714084,2.2837926,-616.86081)">
												<path
   id="path9017"
   inkscape:connector-curvature="0"
   d="m 240.001,648.358 h 119.998 l 60.003,103.999 -60.003,103.999 H 240.001 L 180.002,752.357 Z"
   style="fill:none;stroke:#ffffff;stroke-width:4.02650023" />
											</g>
											<g
   id="g9019"
   transform="matrix(0.98714604,0,0,0.98714084,2.2837926,-826.16054)">
												<path
   id="path9021"
   inkscape:connector-curvature="0"
   d="m 240.001,648.357 h 119.998 l 60.003,103.999 -60.003,103.999 H 240.001 L 180.002,752.356 Z"
   style="fill:none;stroke:#ffffff;stroke-width:4.02650023" />
											</g>
											<g
   id="g9023"
   transform="matrix(0.98714604,0,0,0.98714084,2.2837926,-1035.4603)">
												<path
   id="path9025"
   inkscape:connector-curvature="0"
   d="m 240.001,648.356 h 119.998 l 60.003,104.001 -60.003,103.997 H 240.001 L 180.002,752.357 Z"
   style="fill:none;stroke:#ffffff;stroke-width:4.02650023" />
											</g>
											<g
   id="g9027"
   transform="matrix(0.98714604,0,0,0.98714084,2.2837926,-1244.76)">
												<path
   id="path9029"
   inkscape:connector-curvature="0"
   d="m 240.001,648.358 h 119.998 l 60.003,103.997 -60.003,104.001 H 240.001 L 180.002,752.355 Z"
   style="fill:none;stroke:#ffffff;stroke-width:4.02650023" />
											</g>
											<g
   id="g9031"
   transform="matrix(0.98714604,0,0,0.98714084,2.2837926,-1454.0597)">
												<path
   id="path9033"
   inkscape:connector-curvature="0"
   d="m 240.001,648.355 h 119.998 l 60.003,103.997 -60.003,104.001 H 240.001 L 180.002,752.352 Z"
   style="fill:none;stroke:#ffffff;stroke-width:4.02650023" />
											</g>
											<g
   id="g9035"
   transform="matrix(0.98714604,0,0,0.98714084,2.2837926,-1663.3594)">
												<path
   id="path9037"
   inkscape:connector-curvature="0"
   d="m 240.001,648.356 h 119.998 l 60.003,103.997 -60.003,104.001 H 240.001 L 180.002,752.353 Z"
   style="fill:none;stroke:#ffffff;stroke-width:4.02650023" />
											</g>
											<g
   id="g9039"
   transform="matrix(0.98714604,0,0,0.98714084,2.2837926,-1872.6591)">
												<path
   id="path9041"
   inkscape:connector-curvature="0"
   d="m 240.001,648.353 h 119.998 l 60.003,104.001 -60.003,103.997 H 240.001 L 180.002,752.354 Z"
   style="fill:none;stroke:#ffffff;stroke-width:4.02650023" />
											</g>
											<g
   id="g9043"
   transform="matrix(0.98714604,0,0,0.98714084,180.37514,-93.609469)">
												<path
   id="path9045"
   inkscape:connector-curvature="0"
   d="M 240.002,648.357 H 360 l 60.003,103.999 -60.003,104 H 240.002 L 180.003,752.357 Z"
   style="fill:none;stroke:#ffffff;stroke-width:4.02650023" />
											</g>
											<path
   id="path9047"
   inkscape:connector-curvature="0"
   d="m 359.353,857.333 58.092,-104.848 118.255,1.04 58.092,103.808"
   style="fill:none;stroke:#ffffff;stroke-width:4.02650023" />
											<g
   id="g9049"
   transform="matrix(0.98714604,0,0,0.98714084,180.37514,-302.9092)">
												<path
   id="path9051"
   inkscape:connector-curvature="0"
   d="M 240.002,648.356 H 360 l 60.003,103.999 -60.003,104 H 240.002 L 180.003,752.356 Z"
   style="fill:none;stroke:#ffffff;stroke-width:4.02650023" />
											</g>
											<g
   id="g9053"
   transform="matrix(0.98714604,0,0,0.98714084,180.37514,-512.20893)">
												<path
   id="path9055"
   inkscape:connector-curvature="0"
   d="M 240.002,648.356 H 360 L 420.003,752.355 360,856.357 H 240.002 L 180.003,752.356 Z"
   style="fill:none;stroke:#ffffff;stroke-width:4.02650023" />
											</g>
											<g
   id="g9057"
   transform="matrix(0.98714604,0,0,0.98714084,180.37514,-721.50866)">
												<path
   id="path9059"
   inkscape:connector-curvature="0"
   d="M 240.002,648.356 H 360 L 420.003,752.355 360,856.356 H 240.002 L 180.003,752.355 Z"
   style="fill:none;stroke:#ffffff;stroke-width:4.02650023" />
											</g>
											<g
   id="g9061"
   transform="matrix(0.98714604,0,0,0.98714084,180.37514,-930.80839)">
												<path
   id="path9063"
   inkscape:connector-curvature="0"
   d="M 240.002,648.353 H 360 L 420.003,752.354 360,856.356 H 240.002 L 180.003,752.355 Z"
   style="fill:none;stroke:#ffffff;stroke-width:4.02650023" />
											</g>
											<g
   id="g9065"
   transform="matrix(0.98714604,0,0,0.98714084,180.37514,-1140.1081)">
												<path
   id="path9067"
   inkscape:connector-curvature="0"
   d="M 240.002,648.354 H 360 L 420.003,752.355 360,856.357 H 240.002 L 180.003,752.356 Z"
   style="fill:none;stroke:#ffffff;stroke-width:4.02650023" />
											</g>
											<g
   id="g9069"
   transform="matrix(0.98714604,0,0,0.98714084,180.37514,-1349.4078)">
												<path
   id="path9071"
   inkscape:connector-curvature="0"
   d="M 240.002,648.355 H 360 L 420.003,752.356 360,856.354 H 240.002 L 180.003,752.357 Z"
   style="fill:none;stroke:#ffffff;stroke-width:4.02650023" />
											</g>
											<g
   id="g9073"
   transform="matrix(0.98714604,0,0,0.98714084,180.37514,-1558.7075)">
												<path
   id="path9075"
   inkscape:connector-curvature="0"
   d="M 240.002,648.352 H 360 L 420.003,752.353 360,856.351 H 240.002 L 180.003,752.354 Z"
   style="fill:none;stroke:#ffffff;stroke-width:4.02650023" />
											</g>
											<g
   id="g9077"
   transform="matrix(0.98714604,0,0,0.98714084,180.37514,-1768.0072)">
												<path
   id="path9079"
   inkscape:connector-curvature="0"
   d="M 240.002,648.353 H 360 L 420.003,752.354 360,856.352 H 240.002 L 180.003,752.355 Z"
   style="fill:none;stroke:#ffffff;stroke-width:4.02650023" />
											</g>
											<path
   id="path9081"
   inkscape:connector-curvature="0"
   d="m 357.297,-1233.987 60.965,103.251 116.463,0.784 59.401,-106.378"
   style="fill:none;stroke:#ffffff;stroke-width:4.02650023" />
										</g>
										<g
   id="g9083"
   transform="matrix(1.000007,0,0,0.99872895,1417.8088,1.0903787)">
											<g
   id="g9085"
   transform="matrix(0.98714604,0,0,0.98714084,2.2837926,11.038384)">
												<path
   id="path9087"
   inkscape:connector-curvature="0"
   d="M 240.002,648.355 H 360 L 420.003,752.356 360,856.355 H 240.002 L 180.003,752.356 Z"
   style="fill:none;stroke:#ffffff;stroke-width:4.02650023" />
											</g>
											<g
   id="g9089"
   transform="matrix(0.98714604,0,0,0.98714084,2.2837926,-198.26135)">
												<path
   id="path9091"
   inkscape:connector-curvature="0"
   d="M 240.002,648.354 H 360 l 60.003,104.001 -60.003,104 H 240.002 L 180.003,752.356 Z"
   style="fill:none;stroke:#ffffff;stroke-width:4.02650023" />
											</g>
											<g
   id="g9093"
   transform="matrix(0.98714604,0,0,0.98714084,2.2837926,-407.56108)">
												<path
   id="path9095"
   inkscape:connector-curvature="0"
   d="M 240.002,648.354 H 360 L 420.003,752.355 360,856.354 H 240.002 L 180.003,752.355 Z"
   style="fill:none;stroke:#ffffff;stroke-width:4.02650023" />
											</g>
											<g
   id="g9097"
   transform="matrix(0.98714604,0,0,0.98714084,2.2837926,-616.86081)">
												<path
   id="path9099"
   inkscape:connector-curvature="0"
   d="M 240.002,648.355 H 360 l 60.003,103.999 -60.003,104 H 240.002 L 180.003,752.355 Z"
   style="fill:none;stroke:#ffffff;stroke-width:4.02650023" />
											</g>
											<g
   id="g9101"
   transform="matrix(0.98714604,0,0,0.98714084,2.2837926,-826.16054)">
												<path
   id="path9103"
   inkscape:connector-curvature="0"
   d="M 240.002,648.355 H 360 l 60.003,103.999 -60.003,104 H 240.002 L 180.003,752.355 Z"
   style="fill:none;stroke:#ffffff;stroke-width:4.02650023" />
											</g>
											<g
   id="g9105"
   transform="matrix(0.98714604,0,0,0.98714084,2.2837926,-1035.4603)">
												<path
   id="path9107"
   inkscape:connector-curvature="0"
   d="M 240.002,648.354 H 360 L 420.003,752.355 360,856.353 H 240.002 L 180.003,752.356 Z"
   style="fill:none;stroke:#ffffff;stroke-width:4.02650023" />
											</g>
											<g
   id="g9109"
   transform="matrix(0.98714604,0,0,0.98714084,2.2837926,-1244.76)">
												<path
   id="path9111"
   inkscape:connector-curvature="0"
   d="M 240.002,648.356 H 360 L 420.003,752.353 360,856.354 H 240.002 L 180.003,752.353 Z"
   style="fill:none;stroke:#ffffff;stroke-width:4.02650023" />
											</g>
											<g
   id="g9113"
   transform="matrix(0.98714604,0,0,0.98714084,2.2837926,-1454.0597)">
												<path
   id="path9115"
   inkscape:connector-curvature="0"
   d="M 240.002,648.353 H 360 L 420.003,752.35 360,856.352 H 240.002 L 180.003,752.35 Z"
   style="fill:none;stroke:#ffffff;stroke-width:4.02650023" />
											</g>
											<g
   id="g9117"
   transform="matrix(0.98714604,0,0,0.98714084,2.2837926,-1663.3594)">
												<path
   id="path9119"
   inkscape:connector-curvature="0"
   d="M 240.002,648.354 H 360 L 420.003,752.351 360,856.353 H 240.002 L 180.003,752.352 Z"
   style="fill:none;stroke:#ffffff;stroke-width:4.02650023" />
											</g>
											<g
   id="g9121"
   transform="matrix(0.98714604,0,0,0.98714084,2.2837926,-1872.6591)">
												<path
   id="path9123"
   inkscape:connector-curvature="0"
   d="M 240.002,648.351 H 360 L 420.003,752.352 360,856.35 H 240.002 L 180.003,752.353 Z"
   style="fill:none;stroke:#ffffff;stroke-width:4.02650023" />
											</g>
											<g
   id="g9125"
   transform="matrix(0.98714604,0,0,0.98714084,180.37514,-93.609469)">
												<path
   id="path9127"
   inkscape:connector-curvature="0"
   d="M 240.003,648.355 H 360.001 L 420,752.354 360.001,856.353 H 240.003 L 180,752.354 Z"
   style="fill:none;stroke:#ffffff;stroke-width:4.02650023" />
											</g>
											<path
   id="path9129"
   inkscape:connector-curvature="0"
   d="m 359.354,857.331 58.092,-104.848 118.255,1.04 58.088,103.808"
   style="fill:none;stroke:#ffffff;stroke-width:4.02650023" />
											<g
   id="g9131"
   transform="matrix(0.98714604,0,0,0.98714084,180.37514,-302.9092)">
												<path
   id="path9133"
   inkscape:connector-curvature="0"
   d="m 240.003,648.354 h 119.998 l 59.999,104 -59.999,103.999 H 240.003 L 180,752.354 Z"
   style="fill:none;stroke:#ffffff;stroke-width:4.02650023" />
											</g>
											<g
   id="g9135"
   transform="matrix(0.98714604,0,0,0.98714084,180.37514,-512.20893)">
												<path
   id="path9137"
   inkscape:connector-curvature="0"
   d="M 240.003,648.354 H 360.001 L 420,752.353 360.001,856.354 H 240.003 L 180,752.353 Z"
   style="fill:none;stroke:#ffffff;stroke-width:4.02650023" />
											</g>
											<g
   id="g9139"
   transform="matrix(0.98714604,0,0,0.98714084,180.37514,-721.50866)">
												<path
   id="path9141"
   inkscape:connector-curvature="0"
   d="M 240.003,648.354 H 360.001 L 420,752.353 360.001,856.354 H 240.003 L 180,752.353 Z"
   style="fill:none;stroke:#ffffff;stroke-width:4.02650023" />
											</g>
											<g
   id="g9143"
   transform="matrix(0.98714604,0,0,0.98714084,180.37514,-930.80839)">
												<path
   id="path9145"
   inkscape:connector-curvature="0"
   d="M 240.003,648.351 H 360.001 L 420,752.352 360.001,856.353 H 240.003 L 180,752.352 Z"
   style="fill:none;stroke:#ffffff;stroke-width:4.02650023" />
											</g>
											<g
   id="g9147"
   transform="matrix(0.98714604,0,0,0.98714084,180.37514,-1140.1081)">
												<path
   id="path9149"
   inkscape:connector-curvature="0"
   d="M 240.003,648.352 H 360.001 L 420,752.353 360.001,856.354 H 240.003 L 180,752.353 Z"
   style="fill:none;stroke:#ffffff;stroke-width:4.02650023" />
											</g>
											<g
   id="g9151"
   transform="matrix(0.98714604,0,0,0.98714084,180.37514,-1349.4078)">
												<path
   id="path9153"
   inkscape:connector-curvature="0"
   d="M 240.003,648.353 H 360.001 L 420,752.354 360.001,856.351 H 240.003 L 180,752.354 Z"
   style="fill:none;stroke:#ffffff;stroke-width:4.02650023" />
											</g>
											<g
   id="g9155"
   transform="matrix(0.98714604,0,0,0.98714084,180.37514,-1558.7075)">
												<path
   id="path9157"
   inkscape:connector-curvature="0"
   d="M 240.003,648.35 H 360.001 L 420,752.352 360.001,856.349 H 240.003 L 180,752.352 Z"
   style="fill:none;stroke:#ffffff;stroke-width:4.02650023" />
											</g>
											<g
   id="g9159"
   transform="matrix(0.98714604,0,0,0.98714084,180.37514,-1768.0072)">
												<path
   id="path9161"
   inkscape:connector-curvature="0"
   d="M 240.003,648.351 H 360.001 L 420,752.353 360.001,856.35 H 240.003 L 180,752.353 Z"
   style="fill:none;stroke:#ffffff;stroke-width:4.02650023" />
											</g>
											<path
   id="path9163"
   inkscape:connector-curvature="0"
   d="m 357.299,-1233.989 60.965,103.251 116.463,0.784 59.401,-106.378"
   style="fill:none;stroke:#ffffff;stroke-width:4.02650023" />
										</g>
									</g>
								</g>
							</g>
							<g
   id="g10681"
   transform="translate(0,-208.99898)">
							</g>
						</g>
					</g>
				</g>
			</g>
		</g>
	</g>
</g>
<path
   d="M 894.002,40.5"
   id="path221"
   inkscape:connector-curvature="0"
   style="fill:none;stroke:#ffffff;stroke-width:4.02650023" />
</svg>